<?xml version="1.0" standalone="no"?>
<!DOCTYPE svg PUBLIC "-//W3C//DTD SVG 20010904//EN"
 "http://www.w3.org/TR/2001/REC-SVG-20010904/DTD/svg10.dtd">
<svg version="1.0" xmlns="http://www.w3.org/2000/svg"
 width="800.000000pt" height="800.000000pt" viewBox="0 0 800.000000 800.000000"
 preserveAspectRatio="xMidYMid meet">

<g transform="translate(0.000000,800.000000) scale(0.100000,-0.100000)"
fill="#000000" stroke="none">
<path d="M7000 6390 c0 -5 5 -10 11 -10 5 0 7 5 4 10 -3 6 -8 10 -11 10 -2 0
-4 -4 -4 -10z"/>
<path d="M7088 6303 c-2 -20 -9 -29 -25 -31 -34 -5 -30 -34 4 -30 26 3 27 1
30 -46 l3 -49 -30 6 c-25 5 -30 3 -30 -12 0 -10 7 -22 16 -25 16 -6 16 -8 0
-24 -9 -10 -16 -23 -16 -29 0 -6 -7 -13 -15 -17 -17 -6 -21 -36 -5 -36 6 0 10
-4 10 -10 0 -5 -9 -10 -20 -10 -11 0 -20 5 -20 10 0 6 -9 10 -20 10 -11 0 -20
-4 -20 -10 0 -5 9 -10 20 -10 24 0 26 -16 4 -28 -21 -12 -10 -32 14 -25 22 5
62 -28 62 -54 0 -10 6 -25 13 -32 10 -11 8 -12 -10 -7 -27 8 -83 -18 -83 -39
0 -8 -10 -19 -21 -26 -17 -9 -19 -13 -8 -20 8 -5 20 -2 31 8 21 19 50 10 42
-12 -4 -8 0 -22 7 -31 11 -13 10 -17 -4 -25 -9 -6 -17 -16 -17 -22 0 -21 -36
-45 -81 -52 l-44 -8 30 -13 c25 -10 34 -10 52 2 29 18 43 18 43 -1 0 -8 7 -15
16 -15 12 0 15 -6 9 -22 -4 -13 -10 -44 -14 -70 -8 -49 -25 -78 -46 -78 -7 0
-15 -9 -18 -20 -6 -25 -49 -27 -91 -5 -39 20 -63 20 -46 0 7 -8 20 -15 29 -15
20 0 61 -40 61 -58 0 -15 36 -16 45 -2 10 16 35 -8 28 -26 -3 -10 2 -14 18
-14 13 0 33 -7 43 -15 11 -8 26 -15 35 -15 8 0 22 -6 30 -13 9 -7 35 -19 59
-27 23 -7 47 -19 53 -27 6 -7 18 -13 26 -13 8 0 29 -11 47 -25 18 -14 38 -25
44 -25 13 0 105 -61 110 -72 2 -5 8 -8 14 -8 10 0 127 -83 173 -121 11 -10 57
-49 102 -88 45 -39 84 -71 87 -71 6 0 -3 69 -13 95 -8 19 -25 83 -42 155 -17
74 -31 126 -38 140 -4 8 -15 42 -25 75 -20 64 -24 76 -51 145 -28 72 -48 121
-81 195 -16 37 -122 252 -138 280 -10 18 -86 146 -111 187 -37 61 -108 158
-116 158 -5 0 -9 8 -9 17 0 9 -12 29 -26 44 -15 15 -32 38 -38 50 -16 33 -34
34 -38 2z m50 -220 c2 -8 -5 -13 -17 -13 -12 0 -21 6 -21 16 0 18 31 15 38 -3z
m7 -52 c8 -14 -13 -24 -33 -16 -14 5 -14 7 -2 15 19 12 27 12 35 1z m75 -26
c0 -8 -7 -15 -15 -15 -26 0 -18 20 13 29 1 1 2 -6 2 -14z m-93 -251 c-9 -9
-28 6 -21 18 4 6 10 6 17 -1 6 -6 8 -13 4 -17z m-27 -64 c0 -5 -7 -10 -15 -10
-8 0 -15 5 -15 10 0 6 7 10 15 10 8 0 15 -4 15 -10z m70 -100 c0 -5 -7 -10
-16 -10 -8 0 -12 5 -9 10 3 6 10 10 16 10 5 0 9 -4 9 -10z m-133 -296 c-9 -9
-28 6 -21 18 4 6 10 6 17 -1 6 -6 8 -13 4 -17z"/>
<path d="M6990 6240 c0 -5 5 -10 10 -10 6 0 10 5 10 10 0 6 -4 10 -10 10 -5 0
-10 -4 -10 -10z"/>
<path d="M7050 6209 c0 -5 5 -7 10 -4 6 3 10 8 10 11 0 2 -4 4 -10 4 -5 0 -10
-5 -10 -11z"/>
<path d="M6981 6090 c-11 -6 -8 -11 9 -20 15 -8 25 -9 32 -2 14 14 -24 33 -41
22z"/>
<path d="M6987 5902 c-22 -24 -21 -32 2 -32 22 0 45 25 36 40 -9 15 -20 12
-38 -8z"/>
<path d="M6795 5850 c-3 -5 -1 -10 4 -10 6 0 11 5 11 10 0 6 -2 10 -4 10 -3 0
-8 -4 -11 -10z"/>
<path d="M6907 5723 c-15 -14 -6 -23 23 -23 20 0 30 5 30 15 0 15 -40 21 -53
8z"/>
<path d="M6945 5568 c-2 -7 -5 -20 -8 -28 -2 -8 -12 -15 -22 -15 -10 0 -20 -6
-22 -12 -3 -8 3 -13 14 -13 19 1 53 22 53 34 0 5 10 16 23 27 l22 18 -28 1
c-15 0 -29 -6 -32 -12z"/>
<path d="M6892 5559 c2 -6 8 -10 13 -10 5 0 11 4 13 10 2 6 -4 11 -13 11 -9 0
-15 -5 -13 -11z"/>
<path d="M6785 5540 c-3 -5 -2 -10 4 -10 5 0 13 5 16 10 3 6 2 10 -4 10 -5 0
-13 -4 -16 -10z"/>
<path d="M6910 5461 c0 -16 19 -23 40 -16 30 10 24 25 -10 25 -16 0 -30 -4
-30 -9z"/>
<path d="M6842 5040 c1 -33 3 -60 5 -60 2 0 13 10 24 21 17 17 29 20 56 16 23
-4 40 -1 49 8 35 35 -6 69 -49 41 -22 -15 -25 -14 -47 9 -13 14 -27 25 -32 25
-4 0 -7 -27 -6 -60z"/>
<path d="M7014 5042 c-6 -4 -13 -15 -17 -24 -3 -9 -25 -22 -49 -28 -76 -19
-75 -19 -48 -40 l25 -20 -42 0 c-23 0 -44 -4 -47 -9 -7 -11 22 -23 35 -15 5 3
12 -2 15 -10 3 -9 17 -16 29 -16 38 0 73 -17 80 -39 4 -14 15 -21 33 -21 21 0
24 -2 12 -10 -8 -5 -27 -10 -42 -10 -22 0 -29 -6 -34 -27 -3 -16 -8 -34 -10
-42 -6 -19 14 -41 37 -41 11 0 19 -6 19 -14 0 -8 4 -16 9 -18 14 -5 140 -118
182 -163 21 -22 50 -52 64 -67 24 -24 26 -32 20 -70 -4 -24 -11 -47 -14 -53
-4 -5 -13 -37 -21 -70 -12 -58 -28 -103 -57 -158 -8 -15 -12 -35 -9 -44 6 -14
10 -13 28 7 23 24 40 11 19 -14 -11 -12 -6 -46 6 -46 3 0 12 8 19 18 10 13 15
14 25 5 14 -14 5 -42 -16 -48 -52 -16 -49 -14 -31 -34 9 -9 13 -21 10 -24 -4
-4 -2 -12 4 -20 6 -7 9 -22 6 -34 -9 -34 22 -36 36 -2 8 17 20 29 31 29 28 0
24 -9 -21 -47 -46 -40 -44 -55 9 -52 55 4 69 -9 35 -32 -19 -12 -32 -15 -38
-9 -13 13 -46 13 -46 0 0 -5 11 -12 25 -16 31 -8 49 -29 41 -50 -6 -16 -8 -16
-20 1 -13 18 -14 17 -45 -4 -39 -28 -39 -40 0 -48 18 -3 34 -13 36 -22 4 -14
46 -41 64 -41 4 0 10 13 14 28 3 16 19 39 35 51 19 14 30 31 30 46 0 17 4 23
14 19 8 -3 19 3 25 13 5 11 27 41 49 67 22 26 53 73 69 104 16 31 41 76 56 99
15 24 27 46 27 50 0 3 6 14 14 22 14 17 116 240 116 255 0 5 11 33 25 63 l26
54 -23 32 c-33 46 -133 153 -206 219 -74 67 -234 187 -277 209 -16 8 -56 31
-87 52 -31 20 -66 37 -76 37 -11 0 -23 7 -26 16 -3 9 -12 14 -19 11 -15 -5
-69 21 -80 39 -9 15 -35 18 -53 6z m6 -79 c0 -5 -5 -15 -10 -23 -8 -12 -10
-11 -10 8 0 12 5 22 10 22 6 0 10 -3 10 -7z m0 -228 c0 -8 -7 -15 -15 -15 -16
0 -20 12 -8 23 11 12 23 8 23 -8z m100 -75 c0 -5 -4 -10 -9 -10 -6 0 -13 5
-16 10 -3 6 1 10 9 10 9 0 16 -4 16 -10z m237 -596 c-3 -3 -12 -4 -19 -1 -8 3
-5 6 6 6 11 1 17 -2 13 -5z m-6 -434 c5 0 9 -9 9 -20 0 -28 -23 -25 -37 6 -10
22 -10 25 3 20 9 -3 20 -6 25 -6z"/>
<path d="M6923 4850 c-27 -11 -31 -45 -7 -54 21 -8 54 20 54 46 0 20 -13 22
-47 8z"/>
<path d="M6914 4766 c-8 -22 -2 -27 16 -16 12 7 12 12 3 21 -10 10 -14 9 -19
-5z"/>
<path d="M280 4509 c0 -6 -13 -22 -30 -36 -30 -25 -42 -75 -20 -88 6 -3 10
-16 10 -29 0 -12 7 -31 15 -42 8 -10 15 -26 15 -35 0 -8 11 -39 25 -67 14 -29
25 -55 25 -60 0 -4 27 -59 60 -122 33 -63 63 -123 66 -132 4 -10 10 -18 14
-18 4 0 11 -8 14 -17 3 -10 12 -27 19 -38 196 -308 468 -589 751 -774 43 -28
83 -51 87 -51 5 0 9 -4 9 -8 0 -4 19 -18 43 -30 23 -12 49 -26 57 -31 36 -22
167 -81 193 -87 28 -6 35 4 15 24 -9 9 -7 13 5 18 23 8 21 34 -2 34 -11 0 -21
-9 -25 -22 -4 -18 -8 -20 -17 -11 -9 9 -9 15 0 26 15 19 -10 41 -38 32 -18 -5
-20 -2 -18 29 2 19 6 38 10 42 13 13 7 22 -29 44 -25 16 -33 27 -29 39 14 32
8 42 -85 138 -100 104 -189 204 -204 232 -5 9 -17 24 -27 34 -20 18 -84 112
-108 156 -8 14 -17 28 -21 31 -17 12 -170 305 -170 326 0 6 -11 32 -25 58 -14
26 -25 58 -25 70 0 13 -6 29 -14 35 -8 6 -16 24 -19 39 -26 131 -41 155 -103
166 -51 9 -121 43 -128 61 -4 10 -21 15 -53 15 -64 0 -95 9 -89 26 3 8 -4 19
-16 25 -16 9 -24 8 -36 -5 -12 -11 -13 -16 -4 -16 7 0 10 -4 7 -10 -3 -5 -17
-10 -31 -10 -13 0 -24 5 -24 10 0 6 6 10 13 10 6 0 -1 7 -17 15 -34 18 -46 19
-46 4z m440 -159 c0 -5 -9 -10 -21 -10 -11 0 -17 5 -14 10 3 6 13 10 21 10 8
0 14 -4 14 -10z"/>
<path d="M600 4456 c0 -2 7 -6 15 -10 8 -3 15 -1 15 4 0 6 -7 10 -15 10 -8 0
-15 -2 -15 -4z"/>
<path d="M6965 4420 c-4 -6 -3 -14 0 -20 9 -15 35 -12 35 4 0 17 -27 29 -35
16z"/>
<path d="M6951 4364 c0 -11 3 -14 6 -6 3 7 2 16 -1 19 -3 4 -6 -2 -5 -13z"/>
<path d="M7051 4361 c-1 -8 -8 -19 -18 -26 -17 -13 -10 -35 12 -35 17 0 23 20
14 50 -4 14 -7 19 -8 11z"/>
<path d="M6970 4312 c0 -10 -5 -23 -12 -30 -19 -19 0 -27 21 -8 11 10 17 25
14 37 -7 24 -23 25 -23 1z"/>
<path d="M6895 4270 c3 -5 8 -10 11 -10 2 0 4 5 4 10 0 6 -5 10 -11 10 -5 0
-7 -4 -4 -10z"/>
<path d="M6992 4220 c3 -18 -1 -35 -9 -41 -7 -6 -10 -16 -7 -21 3 -5 -2 -18
-11 -28 -12 -13 -13 -20 -5 -25 18 -11 35 14 49 72 13 52 9 73 -11 73 -6 0 -8
-13 -6 -30z"/>
<path d="M1076 4111 c-4 -7 -5 -15 -2 -18 9 -9 19 4 14 18 -4 11 -6 11 -12 0z"/>
<path d="M1101 4054 c0 -11 3 -14 6 -6 3 7 2 16 -1 19 -3 4 -6 -2 -5 -13z"/>
<path d="M1130 4002 c0 -7 7 -20 15 -28 19 -20 20 -4 0 22 -9 12 -14 14 -15 6z"/>
<path d="M7166 4003 c-3 -4 -6 -15 -6 -25 0 -24 33 -21 38 3 3 17 -21 33 -32
22z"/>
<path d="M167 3950 c-7 -60 0 -224 13 -320 5 -36 10 -88 10 -117 0 -28 4 -54
9 -57 4 -3 11 -36 14 -73 4 -37 14 -99 22 -138 9 -38 20 -93 24 -120 5 -28 19
-82 30 -120 12 -39 33 -108 47 -155 14 -47 32 -100 40 -118 8 -18 14 -37 14
-43 0 -11 23 -67 41 -101 5 -10 9 -23 9 -28 0 -12 16 -48 85 -195 23 -49 45
-97 49 -105 4 -8 20 -37 35 -65 16 -27 39 -70 52 -95 12 -25 37 -66 56 -93 18
-26 33 -49 33 -51 0 -5 142 -219 150 -226 4 -4 66 -83 97 -125 62 -83 322
-357 333 -350 3 2 13 23 20 47 42 130 183 258 285 258 39 0 75 15 75 30 0 6
-7 10 -15 10 -17 0 -20 16 -6 25 6 3 13 -1 18 -8 4 -7 17 -17 28 -21 16 -6 17
-9 5 -16 -12 -8 -12 -10 2 -15 50 -19 86 18 53 55 -21 23 -12 60 14 60 23 0
44 24 39 44 -3 14 -6 14 -32 1 -15 -8 -49 -15 -74 -15 -43 0 -44 1 -29 18 10
10 17 24 17 30 0 7 10 9 29 6 16 -3 31 -1 35 4 6 11 -15 37 -36 44 -6 2 -8 10
-4 16 4 7 16 10 26 7 24 -8 31 16 24 81 -6 46 -4 54 10 54 9 0 16 8 16 18 0
19 -51 52 -80 52 -22 0 -35 16 -20 25 5 3 10 17 10 31 0 18 5 24 21 24 18 0
20 -5 16 -26 l-5 -26 29 32 c37 40 37 53 -1 45 -45 -10 -54 2 -28 38 12 18 29
37 38 44 13 11 11 12 -10 13 -39 1 -57 15 -41 34 7 8 11 27 9 43 -2 22 -9 29
-30 31 -23 3 -28 8 -28 32 0 16 -4 32 -10 35 -21 13 -10 35 18 35 16 0 31 3
34 6 10 9 -4 44 -18 44 -25 0 -27 23 -3 41 13 10 22 19 19 21 -5 4 -44 23
-205 98 -49 23 -109 55 -133 71 -24 16 -45 29 -47 29 -9 0 -243 153 -311 204
-182 136 -396 341 -530 507 -69 85 -194 256 -194 265 0 3 -11 20 -24 37 -13
18 -36 55 -51 82 -15 28 -33 57 -41 66 -8 8 -14 22 -14 30 0 9 -6 23 -13 34
-12 16 -15 12 -20 -35z m1508 -1810 c-5 -8 -11 -8 -17 -2 -6 6 -7 16 -3 22 5
8 11 8 17 2 6 -6 7 -16 3 -22z m108 -187 c4 -3 2 -12 -5 -20 -6 -8 -13 -26
-14 -40 -3 -29 -11 -40 -21 -29 -4 3 -1 12 5 18 18 18 14 28 -10 28 l-21 0 23
25 c25 26 32 29 43 18z"/>
<path d="M7852 3938 c-49 -94 -82 -149 -108 -185 -13 -17 -24 -35 -24 -38 0
-8 -158 -229 -206 -288 -8 -9 -14 -21 -14 -25 0 -4 -13 -16 -30 -25 -16 -10
-30 -22 -30 -26 0 -5 -12 -20 -26 -34 -15 -15 -24 -33 -21 -41 4 -9 -3 -16
-19 -20 -29 -8 -57 -47 -48 -70 4 -10 17 -16 35 -16 36 0 37 -12 3 -30 -22
-12 -27 -12 -34 0 -6 8 -10 20 -10 27 0 27 -23 23 -60 -11 -22 -20 -45 -36
-50 -36 -6 0 -10 -7 -10 -15 0 -21 25 -19 41 4 20 28 55 36 63 14 4 -10 2 -19
-5 -22 -7 -2 -24 -15 -37 -28 -16 -16 -30 -22 -41 -17 -9 4 -20 6 -25 5 -4 -1
-14 3 -20 8 -9 8 -25 -1 -57 -28 -45 -40 -49 -66 -5 -38 22 15 25 15 42 -4 16
-17 16 -22 4 -29 -8 -6 -18 -10 -21 -10 -4 0 -9 -9 -12 -21 -4 -17 -12 -20
-39 -17 -25 2 -33 -1 -36 -15 -3 -15 0 -18 16 -13 26 8 41 -13 18 -26 -9 -5
-16 -17 -16 -27 0 -23 -10 -33 -24 -22 -6 5 -26 12 -43 16 -26 5 -33 3 -33 -9
0 -10 9 -16 25 -16 14 0 25 -4 25 -9 0 -13 -17 -23 -23 -14 -3 5 -22 8 -44 8
-33 0 -38 -3 -41 -25 -5 -36 -28 -57 -83 -75 -27 -9 -49 -18 -49 -20 0 -11 75
-23 85 -15 20 17 25 -1 9 -31 -8 -17 -23 -29 -34 -29 -10 0 -22 -4 -25 -10 -3
-5 -21 -10 -38 -10 -18 0 -47 -9 -65 -20 -18 -11 -41 -20 -52 -20 -11 0 -20
-7 -20 -15 0 -8 -9 -19 -19 -25 -12 -6 -17 -17 -15 -27 5 -19 -50 -71 -113
-108 -37 -22 -49 -16 -34 14 6 12 16 30 21 41 8 16 7 22 -5 26 -23 9 -51 -4
-37 -18 9 -9 4 -19 -19 -40 -30 -29 -31 -48 -3 -48 8 0 12 -4 9 -10 -8 -12
-55 -13 -55 -1 0 11 -59 20 -93 14 -15 -3 -27 -10 -27 -15 0 -5 8 -7 18 -4 12
4 27 -3 41 -18 22 -23 22 -25 4 -34 -12 -7 -25 -7 -36 -1 -14 8 -24 3 -52 -27
-19 -20 -35 -45 -35 -55 0 -10 -9 -20 -20 -24 -12 -4 -22 -19 -26 -41 -3 -19
-11 -34 -18 -34 -20 -1 -62 -44 -76 -77 -14 -36 -25 -41 -34 -18 -9 25 -21 17
-43 -29 -17 -34 -26 -43 -40 -40 -11 3 -26 -3 -37 -14 -17 -19 -17 -20 4 -27
11 -4 27 -1 35 5 16 14 35 5 35 -16 0 -8 -9 -14 -19 -14 -10 0 -21 -7 -25 -15
-3 -8 -15 -15 -26 -15 -21 0 -24 -8 -14 -35 6 -14 8 -14 25 1 15 14 19 14 19
3 0 -16 -55 -43 -69 -34 -6 3 -19 0 -30 -7 -29 -18 -45 0 -32 34 14 38 1 43
-21 7 -15 -24 -16 -34 -7 -45 9 -11 8 -19 -6 -34 -10 -11 -24 -20 -32 -20 -7
0 -13 -4 -13 -10 0 -5 9 -10 20 -10 17 0 19 -6 19 -50 -1 -41 -5 -50 -20 -50
-13 0 -17 7 -17 30 1 17 -3 34 -7 38 -4 4 -6 -3 -3 -15 5 -17 -1 -26 -27 -42
-42 -24 -56 -73 -29 -102 16 -18 16 -19 -2 -19 -11 0 -27 9 -37 20 -18 21 -37
27 -37 11 0 -6 5 -13 10 -16 15 -9 12 -42 -5 -49 -23 -9 -19 -46 5 -46 59 0 8
-93 -57 -104 -61 -10 -68 -12 -81 -20 -15 -9 -16 -52 -1 -62 6 -3 15 -2 20 3
14 14 59 4 66 -14 9 -22 -5 -28 -32 -13 -28 15 -38 10 -29 -14 3 -9 16 -16 29
-16 12 0 28 -7 35 -15 7 -8 27 -15 45 -15 18 0 38 -7 45 -15 7 -8 27 -15 46
-15 18 0 35 -4 38 -9 3 -4 49 -16 103 -25 54 -9 121 -21 148 -26 127 -23 156
-20 136 17 -29 50 -41 102 -41 169 0 41 4 82 10 92 5 9 18 37 29 62 23 53 86
116 154 155 44 25 57 28 152 28 114 0 147 -9 210 -57 71 -53 98 -89 133 -178
7 -16 16 -28 21 -28 19 0 279 293 351 396 8 12 33 46 56 75 82 110 230 359
320 539 35 72 104 227 104 236 0 3 6 20 14 37 7 18 19 48 26 67 7 19 18 49 25
65 28 71 65 195 65 217 0 13 7 33 15 44 8 10 15 29 15 41 0 29 28 144 40 165
6 10 10 31 10 47 0 26 15 117 40 231 5 25 12 96 15 159 3 63 10 122 16 132 5
11 8 73 7 139 l-3 121 -33 -63z m-544 -893 c-10 -22 -48 -36 -48 -18 0 12 33
43 46 43 11 0 11 -5 2 -25z m-58 -90 c0 -8 -4 -15 -10 -15 -5 0 -10 7 -10 15
0 8 5 15 10 15 6 0 10 -7 10 -15z m-54 -11 c-3 -9 -6 -20 -6 -25 0 -5 -7 -9
-15 -9 -8 0 -15 4 -15 9 0 21 13 41 27 41 10 0 13 -6 9 -16z m-26 -124 c0 -5
-4 -10 -10 -10 -5 0 -10 5 -10 10 0 6 5 10 10 10 6 0 10 -4 10 -10z m-187 -86
c30 -6 35 -9 26 -21 -7 -7 -20 -11 -31 -7 -10 3 -26 0 -34 -7 -17 -14 -19 -12
-28 19 -8 25 0 27 67 16z m7 -144 c0 -5 -4 -10 -10 -10 -5 0 -10 5 -10 10 0 6
5 10 10 10 6 0 10 -4 10 -10z m-150 -121 c0 -5 -4 -9 -10 -9 -5 0 -10 7 -10
16 0 8 5 12 10 9 6 -3 10 -10 10 -16z m-176 5 c22 -9 20 -24 -3 -24 -21 0 -34
13 -24 24 8 7 8 7 27 0z m6 -59 c0 -17 -2 -18 -24 -9 -23 9 -20 24 4 24 11 0
20 -7 20 -15z m-303 -131 c-3 -3 -12 -4 -19 -1 -8 3 -5 6 6 6 11 1 17 -2 13
-5z m33 -33 c0 -11 -4 -23 -10 -26 -5 -3 -10 -2 -10 4 0 5 -3 16 -6 25 -4 11
-1 16 10 16 9 0 16 -8 16 -19z m-76 -7 c9 -3 16 -15 16 -25 0 -17 -3 -18 -20
-9 -28 15 -43 3 -36 -30 4 -23 1 -29 -17 -34 -62 -16 -105 4 -52 24 15 6 25
17 25 29 0 12 12 27 28 35 31 18 35 18 56 10z m106 -114 c0 -5 -4 -10 -10 -10
-5 0 -10 5 -10 10 0 6 5 10 10 10 6 0 10 -4 10 -10z m-228 -20 c14 -22 44 -27
50 -9 2 6 4 -7 5 -30 1 -23 0 -41 -1 -41 -2 0 -24 11 -48 25 -38 21 -44 29
-40 50 5 30 18 32 34 5z m-39 -115 c3 -16 -36 -17 -57 -2 -30 22 -11 39 25 24
17 -6 31 -16 32 -22z m-53 -61 c0 -8 -5 -12 -10 -9 -6 4 -8 11 -5 16 9 14 15
11 15 -7z m-71 -16 c-2 -13 -1 -27 3 -33 7 -13 -8 -55 -21 -55 -41 0 -58 47
-21 57 15 4 18 11 14 29 -5 18 -2 24 11 24 11 0 16 -7 14 -22z m-34 -168 c3
-5 -3 -10 -15 -10 -12 0 -18 5 -15 10 3 6 10 10 15 10 5 0 12 -4 15 -10z
m-115 -50 c0 -10 -9 -24 -20 -30 -22 -12 -27 -46 -7 -53 6 -3 -3 -6 -20 -6
-44 -1 -44 26 -2 74 35 40 49 44 49 15z m-40 -165 c0 -11 -12 -15 -44 -15 -76
0 -69 28 7 29 27 1 37 -3 37 -14z m-144 -31 c-10 -14 -20 -23 -23 -20 -3 3 2
17 11 32 10 14 20 23 23 20 3 -3 -2 -17 -11 -32z m-56 -69 c0 -8 -4 -15 -9
-15 -13 0 -22 16 -14 24 11 11 23 6 23 -9z m100 -8 c0 -13 -5 -28 -12 -35 -8
-8 -8 -15 2 -27 16 -19 2 -19 -38 1 l-31 15 32 34 c38 40 47 42 47 12z m-100
-92 c0 -8 -4 -15 -9 -15 -5 0 -11 7 -15 15 -3 9 0 15 9 15 8 0 15 -7 15 -15z
m-106 -86 c-3 -5 -10 -7 -15 -3 -5 3 -7 10 -3 15 3 5 10 7 15 3 5 -3 7 -10 3
-15z"/>
<path d="M7170 3901 c-5 -11 -10 -26 -10 -33 0 -8 -9 -22 -21 -31 -21 -18 -22
-38 -2 -44 6 -2 13 6 16 18 6 23 27 17 27 -7 0 -8 5 -12 10 -9 16 10 12 36 -7
51 -17 13 -17 15 0 25 18 11 24 49 7 49 -5 0 -14 -9 -20 -19z"/>
<path d="M1180 3895 c0 -8 7 -15 16 -15 14 0 14 3 4 15 -7 8 -14 15 -16 15 -2
0 -4 -7 -4 -15z"/>
<path d="M1206 3851 c-4 -7 -5 -15 -2 -18 9 -9 19 4 14 18 -4 11 -6 11 -12 0z"/>
<path d="M7222 3758 c6 -18 28 -21 28 -4 0 9 -7 16 -16 16 -9 0 -14 -5 -12
-12z"/>
<path d="M7233 3533 c-20 -7 -15 -23 7 -23 11 0 20 4 20 9 0 13 -12 19 -27 14z"/>
<path d="M7303 3515 c-8 -22 6 -33 17 -15 13 20 12 30 0 30 -6 0 -13 -7 -17
-15z"/>
<path d="M7196 3475 c-9 -24 -8 -25 15 -25 14 0 19 5 17 17 -4 23 -24 27 -32
8z"/>
<path d="M7100 3330 c0 -11 5 -20 10 -20 6 0 10 9 10 20 0 11 -4 20 -10 20 -5
0 -10 -9 -10 -20z"/>
<path d="M1530 3089 c0 -12 5 -19 13 -16 6 2 20 -2 30 -11 12 -11 17 -12 17
-3 0 13 -39 50 -52 51 -5 0 -8 -9 -8 -21z"/>
<path d="M1620 3039 c0 -5 5 -7 10 -4 6 3 10 8 10 11 0 2 -4 4 -10 4 -5 0 -10
-5 -10 -11z"/>
<path d="M1588 3003 c6 -2 12 -11 12 -19 0 -8 9 -14 20 -14 28 0 25 19 -6 30
-25 10 -50 13 -26 3z"/>
<path d="M7030 2965 c0 -8 9 -15 20 -15 11 0 20 7 20 15 0 8 -9 15 -20 15 -11
0 -20 -7 -20 -15z"/>
<path d="M6945 2900 c-11 -17 5 -32 21 -19 8 6 14 15 14 20 0 12 -27 11 -35
-1z"/>
<path d="M6871 2804 c0 -11 3 -14 6 -6 3 7 2 16 -1 19 -3 4 -6 -2 -5 -13z"/>
<path d="M6657 2632 c-18 -20 -22 -42 -9 -42 12 0 42 34 42 48 0 17 -15 15
-33 -6z"/>
<path d="M6737 2636 c-6 -16 2 -28 14 -20 12 7 11 34 0 34 -5 0 -11 -6 -14
-14z"/>
<path d="M6538 2613 c7 -3 16 -2 19 1 4 3 -2 6 -13 5 -11 0 -14 -3 -6 -6z"/>
<path d="M6590 2559 c0 -5 5 -7 10 -4 6 3 10 8 10 11 0 2 -4 4 -10 4 -5 0 -10
-5 -10 -11z"/>
<path d="M6539 2503 c-11 -29 -6 -53 11 -53 5 0 10 11 10 24 0 14 5 28 10 31
15 9 12 25 -5 25 -9 0 -20 -12 -26 -27z"/>
<path d="M1790 2466 c0 -9 5 -16 10 -16 6 0 10 4 10 9 0 6 -4 13 -10 16 -5 3
-10 -1 -10 -9z"/>
<path d="M6510 2410 c0 -5 5 -10 10 -10 6 0 10 5 10 10 0 6 -4 10 -10 10 -5 0
-10 -4 -10 -10z"/>
<path d="M1732 2391 c2 -7 7 -12 11 -12 12 1 9 15 -3 20 -7 2 -11 -2 -8 -8z"/>
<path d="M1832 2219 c2 -7 10 -15 17 -17 8 -3 12 1 9 9 -2 7 -10 15 -17 17 -8
3 -12 -1 -9 -9z"/>
<path d="M6027 2069 c-9 -6 -17 -14 -17 -19 0 -17 27 -11 34 6 8 22 5 25 -17
13z"/>
<path d="M1890 2030 c0 -5 5 -10 10 -10 6 0 10 5 10 10 0 6 -4 10 -10 10 -5 0
-10 -4 -10 -10z"/>
<path d="M1870 1943 c0 -13 5 -23 10 -23 13 0 13 11 0 30 -8 12 -10 11 -10 -7z"/>
<path d="M1823 1835 c-7 -8 -13 -20 -13 -27 1 -9 4 -9 13 2 7 9 23 21 37 27
l25 12 -25 0 c-14 0 -31 -6 -37 -14z"/>
<path d="M5678 1843 c7 -3 16 -2 19 1 4 3 -2 6 -13 5 -11 0 -14 -3 -6 -6z"/>
<path d="M5680 1675 c0 -8 7 -15 15 -15 8 0 15 7 15 15 0 8 -7 15 -15 15 -8 0
-15 -7 -15 -15z"/>
<path d="M1835 1621 c-3 -5 -1 -12 5 -16 5 -3 10 1 10 9 0 18 -6 21 -15 7z"/>
<path d="M1910 1601 c0 -5 5 -13 10 -16 6 -3 10 -2 10 4 0 5 -4 13 -10 16 -5
3 -10 2 -10 -4z"/>
<path d="M5482 1571 c2 -7 7 -12 11 -12 12 1 9 15 -3 20 -7 2 -11 -2 -8 -8z"/>
<path d="M1940 1536 c0 -8 5 -18 10 -21 6 -3 10 3 10 14 0 12 -4 21 -10 21 -5
0 -10 -6 -10 -14z"/>
<path d="M5507 1463 c-13 -13 -7 -31 13 -36 11 -3 20 -2 20 1 -1 14 -27 41
-33 35z"/>
<path d="M5460 1426 c0 -2 7 -6 15 -10 8 -3 15 -1 15 4 0 6 -7 10 -15 10 -8 0
-15 -2 -15 -4z"/>
<path d="M6338 1362 c-79 -45 -96 -83 -90 -199 3 -58 72 -116 152 -129 52 -8
128 26 160 73 37 54 35 144 -3 202 -15 23 -40 46 -55 51 -15 6 -35 15 -44 20
-29 16 -70 10 -120 -18z"/>
<path d="M1666 1365 c-11 -8 -27 -15 -35 -15 -26 -1 -70 -46 -87 -90 -16 -39
-16 -44 0 -76 9 -19 16 -39 16 -45 0 -6 12 -23 26 -39 23 -23 32 -27 68 -23
30 4 45 1 55 -11 7 -9 20 -16 29 -16 12 0 12 4 -4 21 -19 21 -19 22 3 36 21
14 22 17 8 50 -19 45 -19 63 0 63 9 0 15 -9 15 -24 0 -27 29 -44 42 -24 12 20
9 68 -4 69 -7 1 -21 1 -30 0 -14 -2 -38 25 -38 42 0 3 16 8 35 11 39 8 46 21
15 31 -11 4 -18 11 -15 16 4 5 0 9 -8 9 -8 0 -17 7 -21 15 -7 19 -45 19 -70 0z
m79 -35 c3 -5 -2 -10 -12 -10 -11 0 -24 -5 -31 -12 -7 -7 -12 -8 -12 -4 0 9
31 35 42 36 4 0 10 -4 13 -10z m-120 -190 c3 -5 -1 -10 -9 -10 -9 0 -16 5 -16
10 0 6 4 10 9 10 6 0 13 -4 16 -10z"/>
<path d="M5410 1366 c0 -20 19 -31 32 -18 7 7 3 14 -11 21 -17 10 -21 9 -21
-3z"/>
<path d="M5483 1363 c-15 -5 -18 -43 -3 -43 12 0 32 38 23 43 -5 2 -14 2 -20
0z"/>
<path d="M5397 1213 c-11 -10 13 -33 34 -33 22 0 24 11 7 28 -13 13 -31 16
-41 5z"/>
<path d="M1818 1132 c-18 -3 -26 -32 -9 -32 10 0 36 29 30 33 -2 2 -12 2 -21
-1z"/>
<path d="M1760 1085 c-10 -13 -9 -15 9 -15 11 0 21 4 21 9 0 18 -18 21 -30 6z"/>
<path d="M5180 1013 c-13 -10 -39 -16 -58 -15 -31 3 -34 0 -29 -19 5 -19 2
-21 -24 -17 -25 4 -29 1 -29 -19 0 -17 6 -23 23 -24 12 0 38 -6 57 -13 l34
-12 -31 -16 c-18 -9 -35 -13 -38 -10 -13 14 -73 11 -79 -4 -3 -8 -15 -14 -26
-14 -17 0 -20 -6 -20 -41 l0 -41 -37 4 c-21 3 -46 8 -57 13 -16 7 -17 6 -7
-13 17 -31 14 -35 -19 -28 -26 5 -30 2 -30 -15 0 -15 5 -19 16 -15 12 5 14 1
8 -16 -6 -19 -4 -21 7 -11 8 6 25 13 39 15 17 2 26 10 28 26 6 37 19 25 17
-15 -2 -33 -6 -39 -31 -44 -49 -10 -74 -28 -71 -51 1 -11 -4 -23 -10 -25 -7
-3 -13 2 -13 11 0 22 -21 20 -27 -3 -4 -17 -9 -18 -34 -9 -16 5 -29 13 -29 18
0 14 26 30 59 36 49 10 32 30 -22 26 -38 -3 -47 -1 -47 12 0 9 8 16 20 16 11
0 20 5 20 10 0 13 -10 13 -49 -1 -32 -11 -39 -23 -21 -34 6 -3 7 -17 4 -30 -9
-37 3 -60 41 -74 41 -14 38 -31 -6 -31 -28 0 -60 23 -72 51 -5 11 -8 10 -17
-3 -6 -10 -18 -18 -26 -18 -8 0 -19 -11 -24 -25 -5 -14 -14 -25 -20 -25 -5 0
-10 -9 -10 -20 0 -11 6 -20 13 -20 18 0 37 21 37 41 0 28 20 33 44 10 12 -12
29 -21 38 -21 9 0 18 -10 21 -22 3 -13 9 -33 12 -45 6 -18 3 -23 -10 -23 -10
0 -15 6 -13 17 2 11 -7 25 -24 35 -35 22 -58 23 -58 3 0 -8 7 -15 15 -15 8 0
12 -6 9 -14 -3 -9 6 -22 23 -33 15 -9 32 -23 36 -30 4 -7 17 -13 27 -13 11 0
20 -4 20 -9 0 -4 24 -34 54 -66 61 -64 62 -64 181 -30 33 10 76 21 95 26 65
15 125 32 145 40 11 5 47 17 80 28 80 27 181 65 230 87 22 10 65 27 95 38 80
30 180 87 180 102 0 38 -184 261 -235 285 -11 5 -40 25 -65 43 -25 19 -55 35
-67 35 -13 1 -23 4 -23 9 0 10 -75 42 -98 42 -10 0 -22 4 -27 9 -21 18 -72 20
-95 4z m55 -23 c3 -5 1 -10 -4 -10 -6 0 -11 5 -11 10 0 6 2 10 4 10 3 0 8 -4
11 -10z m-47 -57 c-4 -22 -22 -20 -26 1 -2 10 3 16 13 16 10 0 15 -7 13 -17z
m72 -43 c0 -5 -4 -10 -10 -10 -5 0 -10 5 -10 10 0 6 5 10 10 10 6 0 10 -4 10
-10z m-216 -65 c-16 -24 -54 -35 -54 -16 0 9 45 38 63 40 4 1 0 -10 -9 -24z
m126 17 c0 -4 -9 -13 -21 -20 -19 -12 -19 -11 -9 8 10 19 30 28 30 12z m-50
-82 c0 -5 -7 -10 -15 -10 -8 0 -15 5 -15 10 0 6 7 10 15 10 8 0 15 -4 15 -10z
m-138 -102 c-15 -15 -26 -4 -18 18 5 13 9 15 18 6 9 -9 9 -15 0 -24z m-202
-151 c0 -16 -47 -43 -57 -34 -8 9 27 47 44 47 7 0 13 -6 13 -13z m62 -49 c-7
-7 -12 -8 -12 -2 0 14 12 26 19 19 2 -3 -1 -11 -7 -17z m-52 -64 c0 -8 -4 -12
-10 -9 -5 3 -10 10 -10 16 0 5 5 9 10 9 6 0 10 -7 10 -16z"/>
<path d="M4960 956 c0 -8 5 -18 10 -21 6 -3 10 3 10 14 0 12 -4 21 -10 21 -5
0 -10 -6 -10 -14z"/>
<path d="M4935 870 c-3 -5 -1 -10 4 -10 6 0 11 5 11 10 0 6 -2 10 -4 10 -3 0
-8 -4 -11 -10z"/>
<path d="M5840 853 c0 -5 22 -40 48 -78 26 -39 51 -78 55 -87 8 -22 40 -23 57
-3 7 8 17 15 23 15 6 0 42 22 81 48 39 26 79 51 89 55 10 4 16 11 13 16 -6 9
-54 15 -206 26 -41 3 -94 8 -117 11 -24 4 -43 2 -43 -3z"/>
<path d="M4910 840 c0 -5 5 -10 10 -10 6 0 10 5 10 10 0 6 -4 10 -10 10 -5 0
-10 -4 -10 -10z"/>
<path d="M4795 780 c4 -6 11 -8 16 -5 14 9 11 15 -7 15 -8 0 -12 -5 -9 -10z"/>
<path d="M4753 769 c-11 -11 -6 -49 7 -49 10 0 19 49 10 55 -4 2 -11 0 -17 -6z"/>
<path d="M4520 604 c0 -8 5 -12 10 -9 6 4 8 11 5 16 -9 14 -15 11 -15 -7z"/>
<path d="M4410 590 c-6 -11 -18 -20 -28 -21 -9 0 -12 -3 -6 -5 18 -8 64 14 64
31 0 21 -17 19 -30 -5z"/>
<path d="M4470 510 c0 -5 4 -10 9 -10 6 0 13 5 16 10 3 6 -1 10 -9 10 -9 0
-16 -4 -16 -10z"/>
<path d="M4180 340 c0 -5 5 -10 10 -10 6 0 10 5 10 10 0 6 -4 10 -10 10 -5 0
-10 -4 -10 -10z"/>
<path d="M4311 332 c-7 -13 -7 -22 0 -29 11 -11 -5 -64 -18 -62 -5 1 -23 -2
-41 -6 -39 -9 -37 -27 4 -36 42 -10 30 -12 -93 -17 -24 -1 -43 -5 -43 -10 0
-4 25 -7 55 -5 30 1 99 3 152 4 54 1 103 6 108 10 6 4 47 9 90 11 l80 3 -30
28 c-16 15 -34 27 -39 27 -5 0 -17 6 -25 14 -20 17 -89 56 -100 56 -4 0 -6
-25 -3 -55 4 -51 3 -55 -17 -55 -11 0 -21 5 -21 10 0 6 4 10 9 10 14 0 20 37
8 49 -6 6 -19 11 -29 11 -16 0 -16 3 -6 20 11 17 10 22 -2 30 -21 14 -28 12
-39 -8z m197 -109 c2 -8 -5 -13 -17 -13 -12 0 -21 6 -21 16 0 18 31 15 38 -3z
m-168 -18 c0 -16 -6 -25 -15 -25 -9 0 -15 9 -15 25 0 16 6 25 15 25 9 0 15 -9
15 -25z"/>
<path d="M4142 250 c-11 -29 1 -53 12 -25 3 8 15 15 26 15 18 0 19 2 8 20 -18
28 -34 25 -46 -10z"/>
<path d="M3825 220 c-3 -5 1 -10 10 -10 9 0 13 5 10 10 -3 6 -8 10 -10 10 -2
0 -7 -4 -10 -10z"/>
<path d="M3790 190 c0 -5 4 -10 9 -10 6 0 13 5 16 10 3 6 -1 10 -9 10 -9 0
-16 -4 -16 -10z"/>
</g>
</svg>
