<?xml version="1.0" standalone="no"?>
<!DOCTYPE svg PUBLIC "-//W3C//DTD SVG 20010904//EN"
 "http://www.w3.org/TR/2001/REC-SVG-20010904/DTD/svg10.dtd">
<svg version="1.0" xmlns="http://www.w3.org/2000/svg"
 width="300.000000pt" height="300.000000pt" viewBox="0 0 300.000000 300.000000"
 preserveAspectRatio="xMidYMid meet">
<metadata>
Created by potrace 1.10, written by Peter Selinger 2001-2011
</metadata>
<g transform="translate(0.000000,300.000000) scale(0.050000,-0.050000)"
fill="#674ea7" stroke="none">
<path d="M2598 5889 c-987 -166 -1793 -762 -2204 -1629 -100 -211 -266 -720
-235 -720 7 0 40 28 72 62 321 338 882 495 1486 414 44 -6 47 0 56 153 30 479
266 988 626 1353 128 130 220 199 493 372 52 32 -87 30 -294 -5z m-403 -311
c-20 -11 -32 -27 -26 -36 5 -8 -17 -44 -50 -80 -32 -35 -59 -67 -59 -71 0 -4
-36 -60 -80 -126 -44 -66 -80 -135 -80 -153 0 -17 -9 -32 -20 -32 -11 0 -20
-14 -20 -31 0 -17 -9 -26 -19 -20 -10 7 -15 -6 -11 -28 4 -22 -6 -54 -23 -71
-16 -16 -24 -30 -17 -30 7 0 5 -11 -3 -25 -9 -14 -19 -43 -22 -64 -3 -21 -18
-53 -32 -70 -48 -55 -62 -89 -31 -70 22 13 23 10 7 -12 -11 -16 -23 -56 -27
-89 -3 -33 -12 -64 -20 -70 -7 -5 -13 -32 -12 -60 1 -27 -9 -68 -22 -90 -13
-22 -21 -54 -18 -72 3 -20 -20 -43 -62 -62 -37 -17 -63 -24 -58 -15 11 16
-249 8 -380 -12 -44 -7 -100 -15 -124 -17 -24 -3 -56 -15 -70 -27 -47 -39
-203 -66 -220 -39 -15 23 -25 -8 -18 -51 1 -9 -19 -12 -46 -7 -26 5 -67 -5
-90 -21 -41 -28 -42 -27 -33 37 11 90 31 136 58 136 13 0 10 9 -7 20 -20 13
-22 19 -5 20 14 0 25 13 25 29 0 15 13 41 29 57 16 17 32 42 35 56 9 38 43 75
61 65 8 -5 15 9 15 32 0 22 18 59 40 81 22 22 38 43 35 47 -16 21 249 313 284
313 11 0 21 18 21 40 0 22 7 38 16 35 8 -3 59 37 111 89 53 52 107 93 120 90
13 -2 20 8 17 23 -4 18 6 24 25 16 17 -6 28 -2 26 10 -3 11 49 50 115 86 66
36 154 84 195 108 41 23 80 42 85 42 6 0 39 15 73 33 58 30 62 30 50 0 -10
-27 -5 -29 27 -12 22 12 40 26 40 32 0 6 -10 4 -23 -4 -14 -9 -18 -5 -9 9 8
13 31 23 51 23 20 0 47 14 61 30 14 17 53 30 87 29 53 0 57 -3 28 -21z"/>
<path d="M3180 5879 c441 -278 679 -532 878 -934 130 -264 222 -609 222 -836
0 -109 2 -113 45 -99 382 122 1047 -44 1414 -352 159 -134 160 -133 90 101
-368 1228 -1362 2055 -2587 2154 l-132 10 70 -44z m810 -309 c76 -12 152 -50
141 -69 -7 -10 20 -25 59 -32 39 -8 75 -22 82 -32 6 -10 18 -13 27 -8 9 6 28
-3 41 -19 14 -17 36 -30 49 -30 14 0 51 -22 83 -50 32 -27 70 -50 85 -50 15 0
45 -23 67 -50 21 -28 47 -46 56 -40 9 6 33 -11 54 -37 20 -25 56 -57 80 -70
24 -13 49 -41 56 -62 8 -26 23 -35 44 -27 22 9 28 5 18 -11 -9 -14 5 -30 36
-42 36 -14 48 -31 42 -61 -6 -33 0 -40 29 -30 23 7 41 -1 48 -20 8 -21 5 -27
-11 -18 -12 8 -6 -8 15 -36 22 -28 48 -47 60 -43 12 5 34 -24 49 -62 15 -39
39 -71 54 -71 25 0 35 -42 30 -130 -1 -22 3 -29 9 -15 17 41 51 28 37 -15 -10
-32 -6 -37 22 -27 28 11 32 5 23 -30 -9 -36 -3 -43 42 -44 48 -2 49 -4 13 -19
-22 -9 -29 -18 -15 -19 14 0 25 -15 25 -32 0 -17 18 -50 40 -74 45 -48 53
-115 15 -116 -15 0 -11 -11 10 -27 46 -35 44 -51 -4 -38 -21 5 -43 24 -50 40
-9 25 -17 26 -41 6 -23 -19 -30 -19 -30 -1 0 13 -8 18 -19 12 -10 -6 -24 -2
-31 9 -7 11 -21 15 -31 9 -36 -22 -19 31 23 73 23 23 37 46 32 51 -18 18 -94
-61 -94 -97 0 -55 -35 -43 -69 23 -28 53 -28 59 4 67 25 7 22 10 -11 12 -40 2
-45 -5 -32 -43 12 -38 9 -41 -15 -20 -16 13 -54 19 -83 14 -30 -5 -54 -1 -54
9 0 12 -23 13 -56 3 -37 -11 -74 -7 -105 9 -32 18 -63 20 -96 7 -28 -10 -55
-11 -61 -3 -16 21 -69 20 -84 0 -18 -25 -160 7 -154 33 2 13 -7 43 -21 68 -15
28 -17 45 -4 45 12 0 21 9 21 20 0 11 -11 18 -25 15 -27 -5 -27 6 -6 85 11 40
9 44 -9 20 -19 -25 -22 -22 -14 15 6 25 4 45 -5 45 -8 0 -16 14 -18 30 -1 17
-4 44 -6 60 -2 17 -11 30 -20 30 -22 0 -13 46 13 65 11 8 5 15 -15 15 -30 0
-47 26 -30 46 3 3 -10 29 -29 57 -18 28 -39 84 -47 124 -8 42 -25 73 -41 73
-16 0 -28 19 -28 42 0 23 -27 76 -59 117 -33 42 -55 81 -49 87 7 6 -7 23 -30
37 -23 15 -42 42 -42 62 0 19 -9 35 -20 35 -11 0 -20 10 -20 22 0 12 -22 40
-49 61 -60 47 -48 107 17 87 23 -7 60 -16 82 -20z"/>
<path d="M2820 5706 c-492 -323 -811 -830 -908 -1440 -45 -285 -44 -298 31
-324 93 -32 97 -30 97 63 0 434 344 987 793 1274 189 121 182 121 346 22 465
-278 819 -833 821 -1286 0 -105 0 -105 94 -71 78 29 84 77 38 356 -95 584
-424 1089 -922 1416 -194 127 -182 128 -390 -10z m263 -135 c49 -22 56 -30 26
-30 -23 -1 -50 8 -60 18 -12 12 -30 12 -49 -2 -25 -17 -24 -19 5 -10 19 7 35
4 35 -6 0 -10 -36 -18 -79 -17 l-80 1 45 37 c54 45 71 46 157 9z"/>
<path d="M2854 5140 c-354 -237 -608 -629 -673 -1040 -36 -228 -33 -244 68
-297 209 -111 472 -379 605 -616 l63 -114 102 -2 101 -1 73 123 c152 261 408
521 616 624 50 25 91 50 91 56 0 456 -304 1001 -710 1273 -171 115 -155 115
-336 -6z m198 -103 c9 -14 5 -18 -9 -9 -13 8 -23 4 -23 -8 0 -13 16 -19 35
-15 19 4 73 -22 118 -59 46 -36 93 -66 105 -66 12 0 22 -14 22 -30 0 -17 23
-41 51 -54 27 -13 47 -31 44 -42 -4 -10 19 -46 49 -79 31 -32 56 -72 56 -87 0
-15 14 -28 31 -28 17 0 26 -9 20 -19 -13 -20 25 -101 59 -126 13 -9 13 -15 0
-15 -11 0 -10 -7 3 -15 29 -19 88 -239 74 -276 -6 -15 3 -47 20 -71 28 -40 27
-47 -13 -82 -24 -22 -33 -33 -19 -26 53 26 22 -7 -51 -55 -41 -27 -108 -80
-148 -117 -163 -150 -207 -186 -226 -180 -11 3 -14 -1 -6 -9 21 -21 -21 -89
-55 -89 -16 0 -27 -7 -25 -15 3 -8 -6 -34 -19 -57 -13 -24 -19 -48 -13 -54 6
-5 -8 -16 -30 -24 -23 -7 -42 -20 -42 -29 0 -33 -90 7 -130 56 -68 86 -108
159 -94 173 8 7 4 10 -8 7 -12 -4 -95 61 -184 143 -88 83 -192 177 -229 209
-78 69 -97 180 -49 295 15 36 24 76 20 89 -5 13 1 29 13 36 12 8 21 30 21 50
0 20 12 46 28 59 15 13 33 50 39 83 7 33 35 82 62 110 28 27 53 56 56 64 3 8
12 13 21 10 10 -4 12 3 5 13 -16 27 48 85 76 68 12 -7 10 3 -7 24 -17 22 -20
31 -5 23 14 -9 25 -7 25 2 0 10 22 30 49 44 27 15 47 37 45 49 -2 12 16 20 40
17 31 -3 41 4 34 23 -7 17 18 42 66 67 42 22 78 41 80 42 2 2 10 -7 18 -20z"/>
<path d="M1120 3901 c-314 -46 -611 -203 -898 -473 l-90 -86 56 -136 c101
-246 248 -464 451 -668 169 -169 243 -228 465 -364 210 -129 591 -232 906
-243 202 -8 223 -6 130 11 -820 148 -1431 666 -1532 1297 -33 204 496 495 937
516 231 10 235 11 235 58 0 82 -367 131 -660 88z m-640 -707 c0 -12 -6 -14
-14 -7 -8 8 -26 -6 -41 -31 l-28 -46 10 44 c5 25 -4 55 -20 68 -23 20 -24 28
-3 40 26 17 96 -33 96 -68z"/>
<path d="M4440 3908 c-148 -18 -160 -25 -160 -88 l0 -60 176 0 c298 0 579
-102 822 -297 190 -153 193 -159 141 -308 -239 -683 -752 -1098 -1489 -1205
l-200 -28 270 8 c803 23 1464 456 1819 1191 101 209 104 190 -43 336 -340 340
-846 511 -1336 451z m1234 -630 c-4 -59 -74 -95 -74 -38 0 24 9 37 20 30 11
-7 20 2 20 19 0 17 8 31 19 31 10 0 17 -19 15 -42z m23 -127 c-4 -3 -38 -12
-77 -18 -38 -7 -58 -7 -43 0 23 10 23 15 0 31 -20 14 -16 16 13 8 22 -6 54 -3
70 8 26 16 59 -9 37 -29z"/>
<path d="M1900 3780 c0 -285 200 -771 449 -1089 186 -238 191 -241 191 -98 1
152 50 257 169 362 l95 84 -112 169 c-171 256 -419 463 -716 596 l-76 34 0
-58z m284 -280 c11 0 45 -25 75 -55 30 -30 102 -98 159 -151 68 -62 101 -107
94 -126 -6 -17 -5 -26 3 -21 25 15 56 -35 53 -86 -2 -27 -13 -53 -26 -57 -12
-4 -17 -16 -11 -26 6 -10 1 -18 -11 -18 -34 0 -74 -47 -65 -75 12 -37 -7 -31
-61 20 -26 25 -54 70 -61 101 -8 31 -22 51 -31 45 -9 -5 -28 26 -43 71 -14 44
-40 88 -58 98 -24 15 -25 19 -3 19 20 1 18 11 -10 36 -23 21 -36 54 -32 82 4
26 -1 42 -11 36 -20 -12 -20 59 0 79 7 6 10 22 7 35 -3 13 -2 16 3 8 5 -8 17
-15 29 -15z"/>
<path d="M3990 3768 c-287 -147 -496 -338 -666 -606 l-81 -129 97 -87 c117
-105 167 -220 157 -364 -9 -126 -3 -126 112 1 290 322 551 911 551 1242 0 25
-25 17 -170 -57z m-76 -308 c3 -33 -4 -60 -14 -60 -10 0 -14 -13 -7 -30 6 -16
2 -30 -10 -30 -12 0 -17 -13 -11 -28 6 -16 -3 -50 -21 -77 -17 -26 -25 -54
-18 -62 8 -7 3 -13 -10 -13 -12 0 -23 -18 -23 -40 0 -22 -9 -40 -19 -40 -11 0
-15 -13 -8 -30 6 -16 1 -30 -12 -30 -13 0 -18 -9 -11 -20 7 -11 -8 -29 -34
-39 -25 -10 -33 -19 -17 -20 20 -1 17 -12 -14 -41 -47 -43 -85 -52 -85 -20 0
11 -13 20 -30 20 -16 0 -30 14 -30 30 0 17 -11 30 -23 30 -13 0 -18 6 -11 12
7 7 -1 26 -17 42 -25 25 -25 34 1 74 17 25 24 52 16 60 -8 8 35 61 95 118 60
57 125 127 145 154 20 28 29 37 22 22 -11 -21 -5 -25 20 -15 20 7 46 13 59 13
13 0 11 8 -7 19 -24 16 -20 23 20 39 28 11 50 20 50 21 0 0 2 -26 4 -59z"/>
<path d="M1380 3618 c-344 -67 -665 -296 -621 -443 220 -735 987 -1197 1817
-1095 227 27 246 46 122 117 -385 220 -898 1019 -898 1399 0 49 -223 61 -420
22z m277 -208 c4 -22 15 -45 24 -50 9 -6 21 -33 26 -60 14 -75 36 -126 71
-168 18 -22 21 -32 7 -24 -17 9 -21 4 -13 -17 7 -17 20 -31 30 -31 10 0 18 -9
18 -20 0 -26 82 -201 109 -236 12 -14 32 -38 45 -52 13 -15 19 -33 12 -40 -7
-6 1 -12 19 -12 21 0 28 -13 21 -40 -7 -28 -1 -40 21 -40 31 0 86 -75 77 -106
-2 -8 10 -21 28 -27 34 -14 134 -107 114 -107 -7 0 4 -18 24 -40 19 -21 43
-34 53 -28 9 6 17 -4 17 -21 0 -17 8 -31 19 -31 22 0 81 -57 81 -79 0 -25 -77
-40 -85 -17 -3 11 -35 23 -70 26 -36 3 -59 -3 -53 -12 5 -10 1 -18 -10 -18
-11 0 -25 9 -32 20 -20 33 -55 23 -42 -12 8 -20 3 -28 -13 -23 -14 5 -24 22
-23 37 1 18 -20 29 -57 30 -42 2 -51 -3 -32 -17 18 -12 11 -14 -23 -5 -27 7
-68 15 -90 17 -22 2 -55 19 -74 39 -19 21 -53 34 -80 30 -27 -3 -44 4 -41 18
2 14 -13 20 -40 16 -39 -7 -41 -5 -13 16 17 13 28 35 23 49 -11 34 -45 32 -45
-4 0 -44 -25 -50 -90 -19 l-60 28 60 -11 60 -11 -55 37 c-43 30 -50 43 -30 63
20 20 13 22 -33 10 -46 -11 -55 -8 -43 14 7 15 1 12 -15 -8 -28 -33 -30 -34
-43 0 -7 19 -4 38 8 42 11 4 20 22 19 41 -1 20 -5 24 -11 8 -21 -52 -151 15
-133 68 5 15 -7 20 -33 13 -31 -8 -39 -3 -30 20 8 20 -3 35 -30 44 -46 14 -51
32 -19 64 15 15 5 19 -35 14 -32 -4 -41 -2 -22 4 31 10 31 14 -7 54 -22 24
-46 41 -52 37 -26 -15 -42 47 -20 75 20 24 16 27 -27 19 -38 -8 -50 -1 -50 25
0 19 7 31 15 25 9 -5 16 0 16 12 0 11 -10 21 -21 21 -12 0 -16 8 -10 18 6 10
-2 23 -18 29 -25 9 -26 23 -5 81 24 71 145 180 177 160 9 -6 17 -1 17 10 0 11
14 16 30 9 19 -7 30 1 30 21 0 29 35 40 115 37 14 0 25 6 25 15 0 40 309 11
317 -30z"/>
<path d="M4249 3588 c-131 -591 -440 -1077 -876 -1377 -139 -95 -133 -103 107
-132 810 -100 1549 341 1802 1076 l39 114 -76 64 c-222 189 -480 289 -779 303
l-204 9 -13 -57z m431 -102 c0 -6 -13 -5 -30 1 -16 7 -30 3 -30 -8 0 -10 14
-19 30 -19 17 0 30 -9 30 -20 0 -23 73 -27 83 -5 4 9 39 5 77 -8 60 -21 49
-37 -21 -31 -6 1 -10 -15 -10 -35 0 -23 10 -32 27 -26 16 6 36 -2 46 -17 13
-21 17 -17 18 17 0 25 9 45 20 45 11 0 19 -7 18 -15 -7 -43 5 -63 32 -52 17 6
30 1 30 -11 0 -12 29 -23 65 -25 l65 -3 -60 -9 c-33 -5 -71 -18 -84 -28 -13
-11 -36 -13 -50 -5 -20 12 -20 8 1 -18 24 -29 30 -30 57 -3 23 23 37 25 58 7
20 -17 28 -17 28 0 0 12 10 22 22 22 12 0 17 -13 11 -30 -7 -16 -3 -30 8 -30
10 0 19 -10 19 -22 0 -12 -13 -17 -29 -11 -15 6 -40 -4 -55 -22 -23 -28 -20
-30 29 -18 65 16 72 -10 15 -50 -23 -15 -45 -49 -50 -77 -5 -27 -18 -53 -29
-56 -10 -4 -14 -22 -8 -40 9 -29 8 -30 -11 -4 -19 26 -25 26 -40 1 -16 -24
-24 -24 -50 -2 -18 14 -32 17 -32 6 0 -24 59 -53 96 -47 21 3 21 -3 0 -37 -17
-27 -38 -37 -63 -29 -24 8 -33 4 -25 -9 17 -27 -29 -103 -63 -103 -33 0 -33
-40 0 -41 14 0 -5 -14 -41 -29 -37 -16 -61 -38 -54 -50 7 -11 -1 -20 -18 -20
-17 0 -46 -22 -64 -50 -26 -39 -50 -50 -115 -51 -65 -2 -74 -6 -43 -19 39 -17
39 -17 -3 -19 -23 0 -48 -15 -54 -31 -15 -38 -108 -75 -139 -56 -41 25 -91 21
-80 -7 10 -26 -13 -35 -74 -29 -26 3 -26 1 -1 -16 47 -32 -25 -51 -80 -21 -39
20 -43 19 -32 -10 8 -20 5 -28 -8 -20 -11 7 -32 3 -46 -8 -14 -12 -42 -21 -64
-21 -38 0 -169 -16 -189 -23 -30 -11 -92 9 -106 33 -9 16 -27 23 -40 16 -13
-7 5 14 40 47 35 33 58 66 52 73 -7 7 -4 12 7 12 11 0 50 27 87 60 37 33 79
60 94 60 14 0 26 9 26 20 0 11 -11 20 -25 20 -17 1 -15 7 5 20 17 11 22 20 13
20 -10 0 10 26 44 57 34 32 55 65 47 73 -8 9 7 11 33 4 34 -8 43 -4 36 16 -6
15 2 38 18 51 16 13 29 39 29 56 1 40 56 110 110 140 22 12 29 22 15 22 -17 1
-14 28 14 96 21 52 48 93 61 89 15 -3 18 10 10 37 -9 29 -2 51 23 70 23 17 27
28 11 28 -20 1 -20 11 -3 43 12 23 17 46 11 52 -17 18 68 126 99 126 16 0 29
-9 29 -19 0 -28 127 -1 146 31 13 24 74 18 74 -6z"/>
<path d="M113 2905 c46 -731 277 -1301 749 -1844 l147 -169 14 69 c36 176 277
264 413 149 100 -84 126 -195 74 -318 -15 -35 -9 -36 82 -23 422 63 968 396
968 591 0 89 68 339 121 441 50 99 50 102 -16 77 -831 -320 -2072 213 -2488
1070 -61 125 -74 116 -64 -43z m468 -694 c26 -34 26 -37 -4 -26 -17 6 -43 1
-55 -11 -18 -18 -29 -17 -45 6 -18 26 -20 26 -11 -1 5 -17 -3 -48 -18 -69 -27
-36 -28 -36 -28 5 0 23 -11 49 -24 57 -33 21 42 47 99 34 34 -8 45 -1 45 25 0
20 3 32 6 27 3 -4 19 -25 35 -47z m-27 -79 c-6 -15 2 -45 19 -65 16 -20 25
-27 19 -14 -7 13 6 44 27 70 l40 47 0 -55 c1 -43 11 -55 44 -55 43 0 43 -1 5
-43 -38 -42 -38 -42 12 -27 28 8 59 22 69 32 57 54 66 2 10 -58 -47 -51 8 -69
58 -19 20 20 28 19 41 -2 12 -19 21 -21 31 -5 21 35 92 28 78 -8 -7 -18 0 -30
18 -30 51 0 109 -79 74 -101 -23 -14 -19 -18 17 -19 26 0 60 14 77 30 40 40
135 41 120 1 -8 -20 -1 -25 21 -17 24 9 28 5 16 -14 -12 -20 -7 -23 20 -13 21
8 57 0 88 -21 69 -47 135 -51 207 -14 32 17 64 26 70 19 7 -6 1 -11 -12 -11
-47 0 -21 -50 27 -53 28 -1 50 5 50 15 0 10 13 18 29 18 18 0 25 -12 18 -30
-8 -22 -2 -27 23 -17 20 7 41 1 52 -15 13 -22 17 -22 18 -2 0 15 9 21 20 14
11 -7 26 1 32 19 7 17 21 25 32 18 13 -7 10 -19 -7 -29 -19 -12 -11 -17 27
-18 29 0 59 9 66 20 7 11 35 20 62 20 29 0 45 -9 38 -20 -7 -11 1 -20 16 -20
16 0 35 20 43 45 8 27 18 35 24 20 6 -14 25 -25 44 -25 28 1 29 3 3 20 -18 12
-20 20 -6 20 13 0 29 -8 35 -19 13 -20 89 -17 127 6 16 10 20 5 12 -16 -7 -17
-19 -31 -28 -31 -9 0 -14 -16 -13 -35 2 -22 -14 -37 -42 -41 -25 -4 -45 -16
-45 -28 0 -11 15 -14 35 -6 96 40 115 33 55 -18 -53 -46 -54 -63 -3 -54 9 2
13 -8 8 -22 -5 -16 -33 -23 -75 -19 -53 5 -63 1 -53 -25 7 -20 1 -32 -16 -32
-40 0 -60 -39 -33 -66 16 -16 22 -16 22 2 0 38 80 108 111 96 16 -6 23 -24 17
-41 -7 -17 -20 -26 -29 -21 -9 6 -32 -16 -52 -49 -33 -56 -37 -58 -71 -27 -20
18 -37 26 -38 19 -2 -7 -4 -20 -6 -28 -1 -8 -10 -26 -18 -40 -9 -14 -11 -34
-4 -45 7 -11 3 -20 -8 -20 -12 0 -35 -28 -53 -62 -18 -34 -37 -56 -44 -50 -7
7 -2 23 11 36 32 32 30 69 -5 83 -21 8 -25 1 -16 -23 11 -29 8 -30 -20 -7 -29
23 -32 21 -25 -16 10 -52 -32 -72 -88 -42 -27 14 -42 15 -42 2 0 -11 -13 -15
-30 -8 -16 6 -30 23 -30 37 0 15 -21 25 -47 23 -35 -2 -48 -15 -48 -47 0 -38
6 -42 38 -24 21 11 48 14 60 6 20 -13 106 -29 172 -33 44 -3 27 -30 -24 -40
-27 -5 -53 1 -57 13 -4 13 -21 8 -42 -13 -19 -19 -42 -35 -52 -35 -9 0 -31 -6
-49 -12 -49 -19 -17 43 35 68 l44 20 -45 -2 c-25 -1 -45 -9 -45 -16 0 -7 -19
-18 -42 -24 -23 -6 -37 -19 -32 -28 6 -9 -11 -17 -38 -19 -26 -1 -44 4 -39 12
26 41 30 141 6 142 -17 0 -14 8 7 25 64 48 66 110 3 98 -30 -5 -62 -22 -71
-37 -9 -15 -25 -22 -36 -16 -13 8 -8 31 11 60 34 53 38 69 16 69 -22 0 -66
-102 -53 -123 16 -26 -5 -21 -69 18 -61 38 -38 103 28 77 16 -6 29 -3 29 6 0
21 -61 38 -95 27 -14 -5 -20 -17 -14 -27 6 -10 2 -18 -10 -18 -11 0 -21 9 -21
21 0 14 -12 14 -39 0 -66 -36 -106 -27 -82 18 41 76 5 79 -71 6 -30 -29 -71
-45 -117 -45 -39 0 -71 -9 -71 -20 0 -11 -10 -20 -22 -20 -17 0 -16 8 1 28 13
17 15 33 4 40 -10 6 -23 -6 -29 -28 -6 -22 -24 -40 -41 -40 -19 0 -27 11 -21
28 6 17 -7 38 -30 51 -23 12 -41 29 -39 37 5 37 -7 91 -16 69 -18 -43 -47 -27
-47 24 0 36 -8 47 -30 38 -16 -6 -30 -1 -30 11 0 12 9 22 20 22 11 0 20 26 20
58 0 33 13 63 30 69 16 7 30 26 30 44 0 23 -17 15 -62 -30 -64 -64 -126 -65
-68 -1 21 24 25 41 11 49 -11 7 -21 6 -21 -4 0 -9 -19 -18 -42 -20 -24 -1 -37
3 -30 9 6 7 2 24 -11 39 -16 19 -16 34 0 53 23 28 23 114 0 114 -28 0 -37 -37
-12 -47 20 -8 20 -10 -1 -11 -14 -1 -31 14 -38 33 -6 19 -25 51 -42 70 -27 31
-25 36 17 51 l46 17 -43 12 c-31 8 -44 27 -44 62 0 38 8 49 30 40 17 -6 30 -1
30 11 0 12 5 22 12 22 7 0 7 -13 2 -28z m1135 -931 c7 -10 -1 -26 -16 -35 -15
-9 -39 -38 -53 -66 -15 -27 -30 -39 -35 -26 -19 58 75 174 104 127z"/>
<path d="M926 1910 c-13 -14 -36 -30 -50 -36 -19 -7 -15 -18 14 -41 36 -28 36
-32 5 -32 -43 -1 -47 -41 -4 -41 16 0 36 14 42 31 10 25 17 26 44 5 28 -22 30
-22 10 4 -13 17 -27 54 -30 83 -6 42 -12 48 -31 27z"/>
<path d="M1036 1796 c-8 -19 -5 -40 5 -47 37 -22 -2 -50 -41 -29 -48 25 -60
25 -60 -1 0 -12 8 -16 19 -10 10 6 24 3 31 -9 21 -34 67 -22 91 22 14 26 15
38 2 30 -11 -7 -23 8 -27 33 -5 38 -9 40 -20 11z"/>
<path d="M1242 1806 c1 -9 1 -20 -1 -26 -22 -55 -13 -75 31 -73 26 2 48 15 48
30 0 16 -12 23 -29 16 -19 -7 -25 -1 -19 16 6 15 1 33 -11 40 -12 8 -21 7 -19
-3z"/>
<path d="M690 1768 c-39 -30 -38 -31 18 -24 33 3 63 17 67 31 11 34 -36 30
-85 -7z"/>
<path d="M1156 1743 c14 -9 20 -30 14 -47 -11 -27 43 -70 63 -50 16 17 -46
114 -73 114 -23 -1 -24 -4 -4 -17z"/>
<path d="M1282 1662 c-15 -10 -21 -28 -13 -41 11 -17 25 -15 52 10 20 18 46
27 58 20 11 -7 21 -4 21 8 0 25 -79 27 -118 3z"/>
<path d="M1680 1660 l-50 -12 47 -13 c36 -9 44 -21 33 -54 -7 -24 -4 -41 9
-41 11 0 21 23 21 51 0 28 8 46 19 40 10 -6 23 -4 29 6 16 25 -47 38 -108 23z"/>
<path d="M2144 1662 c-28 -17 -26 -162 2 -162 10 0 8 -13 -6 -30 -14 -16 -17
-30 -7 -30 9 0 29 18 42 40 14 22 39 40 55 40 17 0 30 10 30 22 0 14 -19 18
-48 10 -37 -9 -50 -2 -59 32 -15 58 0 70 50 39 58 -36 68 -15 11 23 -26 17
-58 24 -70 16z"/>
<path d="M1603 1596 c-45 -12 -63 -27 -56 -46 12 -30 -99 -97 -129 -78 -10 5
-18 0 -18 -13 0 -15 16 -19 45 -9 25 7 61 15 80 16 19 2 35 14 35 28 0 14 9
26 20 26 11 0 20 14 20 30 0 17 9 30 20 30 11 0 20 -13 20 -29 0 -16 11 -35
23 -43 17 -10 19 -3 10 22 -8 21 -4 43 8 51 40 24 -8 34 -78 15z"/>
<path d="M1135 1425 c-29 -62 -29 -67 -3 -30 33 46 108 62 108 24 0 -12 9 -16
20 -9 12 7 16 20 10 30 -6 9 1 21 15 27 14 7 0 6 -30 0 -34 -7 -55 -3 -55 11
0 44 -31 19 -65 -53z"/>
<path d="M2017 1458 c-18 -22 -45 -43 -60 -46 -54 -12 -94 -36 -105 -65 -6
-16 -3 -24 7 -18 9 6 21 4 26 -4 5 -8 6 -4 3 9 -5 20 16 47 53 69 7 4 28 -9
47 -28 39 -39 72 -46 72 -14 0 12 -9 16 -20 9 -11 -7 -20 2 -20 20 0 19 9 27
23 18 15 -9 18 -5 8 10 -8 13 -4 37 10 53 13 16 16 29 6 29 -9 0 -32 -19 -50
-42z"/>
<path d="M1734 1332 c-19 -47 -18 -57 4 -43 10 6 37 -14 60 -44 29 -39 41 -46
41 -22 1 18 -12 38 -29 44 -18 7 -24 24 -16 46 8 21 5 29 -9 20 -12 -7 -25 -2
-30 11 -5 15 -13 10 -21 -12z"/>
<path d="M5840 2897 c-233 -469 -772 -880 -1368 -1042 -221 -60 -787 -64 -998
-8 -167 45 -164 49 -94 -97 36 -76 66 -185 82 -298 24 -172 27 -180 116 -265
232 -224 688 -427 958 -427 l59 0 -31 85 c-100 279 355 454 469 181 37 -90 48
-86 176 69 415 499 625 989 701 1635 44 377 40 387 -70 167z m-180 -542 c0
-11 14 -14 30 -8 17 7 30 3 30 -8 0 -10 -12 -19 -27 -19 -18 0 -24 -16 -18
-50 6 -31 1 -50 -15 -50 -13 0 -19 13 -13 30 7 17 1 28 -13 25 -13 -3 -22 6
-19 20 3 14 -9 25 -26 25 -25 0 -26 5 -6 27 29 30 77 35 77 8z m-80 -136 c28
-15 61 -25 75 -22 14 3 20 -8 13 -26 -7 -16 -18 -29 -25 -28 -70 9 -92 -5 -54
-34 39 -29 38 -31 -49 -37 -16 -2 -35 9 -40 22 -7 18 -19 12 -37 -17 -24 -37
-23 -41 4 -31 18 7 36 5 41 -4 6 -8 38 -11 71 -6 82 12 78 -22 -6 -52 -52 -19
-68 -36 -68 -74 0 -56 14 -62 55 -25 24 21 24 20 1 -11 -19 -24 -43 -33 -73
-25 -42 10 -44 6 -29 -47 21 -72 -53 -128 -108 -83 -17 14 -31 17 -31 6 0 -10
-40 -45 -90 -76 -49 -31 -90 -69 -90 -83 0 -39 20 -32 64 24 43 55 96 66 96
20 0 -16 -14 -30 -31 -30 -17 0 -25 -9 -18 -21 26 -43 78 -10 78 51 1 47 11
61 46 66 58 9 58 -25 1 -65 -25 -17 -38 -31 -30 -31 9 0 6 -18 -6 -41 -12 -22
-31 -34 -42 -28 -11 7 -38 -3 -59 -22 -36 -32 -39 -32 -39 -2 0 18 -13 33 -30
33 -45 0 -37 -20 35 -86 l65 -59 -55 13 c-34 8 -55 5 -55 -9 0 -12 9 -16 20
-9 24 15 26 -10 2 -47 -12 -20 -19 -16 -27 15 -14 53 -56 54 -69 2 -6 -22 -23
-40 -38 -40 -16 0 -22 -12 -15 -30 6 -16 1 -30 -11 -30 -12 0 -20 11 -17 25 3
16 -17 24 -60 22 -36 -2 -60 5 -54 15 6 10 29 18 50 18 29 0 38 13 35 49 -3
26 -11 44 -19 39 -7 -4 -17 -1 -20 8 -4 8 -23 0 -42 -20 -30 -31 -31 -36 -4
-36 17 0 26 -9 19 -21 -7 -11 -33 -18 -57 -16 -100 8 -155 -3 -149 -32 3 -15
-3 -27 -14 -25 -11 2 -17 13 -13 24 4 11 10 34 13 50 3 17 15 28 28 25 12 -3
22 4 22 15 0 32 -29 23 -78 -22 -24 -23 -40 -55 -34 -70 7 -19 -5 -28 -40 -28
-28 0 -45 -9 -39 -19 7 -10 -7 -29 -31 -42 -34 -18 -47 -17 -60 4 -14 21 -17
20 -18 -6 0 -19 -11 -39 -25 -46 -14 -6 -5 -8 20 -3 25 4 45 0 45 -10 0 -10
-16 -19 -35 -19 -29 -2 -30 -4 -5 -15 17 -8 32 -32 35 -54 6 -37 5 -38 -16 -4
-19 30 -27 32 -54 10 -24 -19 -29 -20 -18 -1 9 14 10 25 3 25 -24 0 -70 -57
-70 -86 0 -17 -13 -35 -30 -41 -19 -8 -30 0 -30 23 -1 29 -3 30 -20 4 -15 -24
-19 -24 -20 -3 0 22 -6 23 -29 4 -36 -30 -73 -10 -58 30 8 22 2 26 -24 16 -24
-10 -31 -6 -21 10 8 12 27 23 43 23 33 0 39 32 9 50 -11 7 -20 3 -20 -9 0 -11
-10 -21 -23 -21 -12 0 -35 -16 -49 -35 -23 -30 -30 -31 -46 -6 -24 36 -8 67
24 47 13 -7 11 2 -4 21 -27 33 -24 35 30 24 32 -6 47 -6 33 1 -14 6 -20 20
-14 30 6 10 -7 18 -30 18 -37 0 -50 -20 -43 -65 1 -8 -8 -15 -20 -15 -12 0
-17 -13 -11 -30 7 -16 3 -30 -8 -30 -10 0 -19 18 -19 40 0 22 -9 40 -20 40
-11 0 -20 -10 -20 -21 0 -12 -10 -15 -21 -8 -12 7 -17 25 -11 40 5 14 -1 31
-14 36 -17 7 -15 16 6 31 20 14 22 21 5 22 -13 0 -36 -18 -50 -40 -33 -53 -63
-52 -34 2 12 23 17 47 11 53 -7 6 -12 1 -12 -12 0 -13 -14 -23 -31 -23 -18 0
-28 14 -25 34 4 24 -11 38 -50 45 l-56 11 46 40 c25 22 59 46 76 54 25 11 24
13 -5 15 -19 0 -54 -18 -77 -41 -53 -53 -76 -32 -26 25 30 35 32 41 6 32 -37
-13 -102 52 -78 78 21 22 -4 174 -29 169 -26 -5 -32 55 -6 71 14 9 17 -3 9
-34 l-12 -47 44 51 c36 43 49 47 69 26 14 -15 16 -32 7 -38 -10 -6 -22 0 -27
14 -5 14 -13 1 -19 -29 -9 -48 -6 -52 27 -34 21 11 46 15 55 9 10 -6 23 3 29
19 7 17 26 30 42 30 17 0 31 11 32 25 0 14 14 7 30 -15 26 -34 36 -35 71 -13
23 14 46 21 52 16 5 -5 -9 -20 -32 -32 -23 -12 -42 -31 -42 -42 0 -23 80 19
112 59 16 21 26 22 37 4 15 -25 -26 -91 -45 -72 -11 11 -84 -89 -84 -115 0 -8
14 -15 30 -15 17 0 30 9 30 20 0 11 23 20 50 20 28 0 50 12 50 27 0 15 23 37
51 50 28 13 46 32 40 42 -14 23 14 41 81 53 32 6 46 2 38 -11 -7 -12 -30 -21
-51 -21 -22 0 -39 -10 -39 -21 0 -12 11 -15 25 -6 17 10 16 3 -3 -20 -57 -71
-4 -51 80 29 53 51 90 73 95 58 4 -13 0 -30 -10 -37 -24 -17 -22 -63 3 -64 11
-1 25 18 30 41 11 46 10 46 100 20 36 -10 60 -10 60 1 0 11 16 19 35 19 30 1
31 3 5 20 -19 12 -32 12 -37 -1 -10 -29 -62 -23 -96 11 -26 26 -26 30 0 30 16
0 34 -11 39 -25 6 -17 23 -11 52 20 45 47 82 59 82 27 0 -10 -9 -22 -20 -25
-11 -4 -3 -18 19 -32 37 -23 39 -21 27 38 -9 47 -6 59 12 48 14 -8 20 -27 15
-41 -7 -17 17 -33 68 -46 83 -21 111 2 34 29 -25 8 -50 14 -56 12 -6 -1 -10
15 -10 36 0 28 9 36 35 28 20 -7 36 -2 36 10 0 11 8 21 17 21 24 0 21 -68 -5
-85 -13 -9 -7 -15 15 -15 29 0 36 -11 28 -50 -5 -27 -3 -50 5 -50 9 0 16 -36
16 -80 1 -44 -7 -80 -18 -80 -11 0 -15 -9 -8 -20 19 -30 50 -24 50 10 0 17 11
30 26 30 23 0 94 68 94 91 0 6 -17 1 -39 -10 -31 -17 -41 -13 -51 19 -7 22
-21 40 -30 40 -25 0 -16 80 9 81 12 0 39 15 61 32 43 35 14 34 -73 -2 -26 -11
-32 -3 -30 36 2 27 10 45 18 40 8 -5 15 -1 15 10 0 11 -11 24 -25 30 -15 6
-11 10 10 11 20 1 35 -13 36 -33 0 -33 1 -33 21 0 11 19 29 35 40 35 11 0 14
-10 6 -23 -10 -16 2 -18 44 -7 32 9 75 15 95 14 37 -2 37 -1 1 25 -25 18 -49
21 -72 9 -20 -11 -38 -11 -45 0 -10 16 71 57 144 73 30 7 33 -24 4 -42 -14 -8
-8 -23 15 -39 37 -28 66 -22 66 12 0 11 -8 15 -18 9 -9 -6 -16 19 -14 54 3 68
92 115 92 49 0 -32 41 -54 99 -54 28 0 33 12 25 54 -10 52 -11 52 -26 10 -11
-28 -27 -39 -48 -31 -27 10 -27 15 4 39 24 18 27 27 10 27 -35 1 -92 59 -75
76 7 8 21 2 30 -13 10 -16 32 -21 57 -13 28 9 48 1 62 -23 11 -20 21 -25 21
-12 1 13 -7 28 -16 34 -21 13 -5 112 17 112 9 0 11 -20 5 -45 -11 -40 -8 -42
22 -18 18 16 33 47 33 70 0 25 7 34 15 21 8 -12 38 -34 65 -49z m-1473 -548
c7 -18 -5 -34 -32 -43 -24 -7 -56 -26 -71 -42 -56 -55 -47 -7 9 52 65 69 78
73 94 33z"/>
<path d="M5028 1807 c7 -17 4 -43 -7 -55 -27 -33 42 -75 81 -49 22 14 19 17
-12 13 -34 -5 -39 4 -33 59 4 40 -3 65 -18 65 -13 0 -18 -14 -11 -33z"/>
<path d="M5105 1780 c-22 -35 -20 -40 18 -40 24 0 38 6 31 13 -8 7 -4 25 9 40
16 20 15 27 -6 27 -15 0 -39 -18 -52 -40z"/>
<path d="M4640 1687 c-27 -14 -39 -27 -25 -27 50 0 -7 -99 -61 -107 -43 -7
-95 -54 -82 -75 6 -10 -10 -27 -36 -37 -45 -18 -45 -18 9 -20 35 -1 56 10 58
29 4 57 7 67 24 83 9 9 15 -1 13 -23 -9 -77 -2 -103 18 -72 10 16 14 40 8 55
-7 18 5 27 34 27 33 0 41 8 32 33 -9 21 6 53 39 88 59 62 43 86 -31 46z"/>
<path d="M5133 1670 c-7 -16 -26 -30 -42 -30 -40 0 -40 -32 0 -48 18 -6 26 -3
19 8 -7 11 -5 20 4 20 9 0 28 18 41 40 14 22 17 40 7 40 -10 0 -23 -13 -29
-30z"/>
<path d="M4395 1608 c-7 -7 5 -31 26 -54 21 -22 45 -35 53 -26 8 8 2 23 -15
33 -21 14 -22 18 -3 19 15 0 21 9 14 20 -14 22 -57 27 -75 8z"/>
<path d="M4209 1559 c-7 -11 -30 -15 -51 -8 -26 8 -38 2 -38 -19 0 -19 11 -26
30 -19 36 14 39 -15 5 -53 -21 -24 -20 -24 10 -2 19 15 35 36 35 47 0 11 16
33 35 47 19 15 24 27 11 27 -13 1 -29 -8 -37 -20z"/>
<path d="M4690 1500 c-19 -21 -45 -33 -56 -26 -13 8 -16 0 -8 -21 8 -21 3 -33
-17 -33 -16 0 -29 -9 -29 -20 0 -31 23 -24 72 22 l44 42 42 -42 c23 -23 42
-33 42 -23 0 11 -20 39 -45 63 l-45 43 45 -10 c30 -8 45 -2 45 17 0 41 -48 34
-90 -12z"/>
<path d="M4192 1368 c-18 -48 -14 -58 12 -32 13 13 40 24 60 24 20 0 36 9 36
20 0 33 -95 23 -108 -12z"/>
<path d="M4445 1387 c-14 -6 -25 -19 -25 -30 0 -11 9 -14 20 -7 11 7 20 3 20
-9 0 -11 -27 -21 -59 -21 -48 0 -57 7 -47 34 12 31 10 31 -18 5 -23 -21 -25
-33 -9 -44 15 -10 7 -19 -22 -27 -25 -7 -45 -21 -45 -32 0 -10 10 -12 22 -5
12 8 30 2 39 -12 13 -21 25 -17 53 19 32 39 44 42 87 23 34 -16 65 -17 99 -3
47 18 46 20 -22 21 -66 1 -72 5 -63 51 5 28 6 49 2 48 -4 0 -18 -6 -32 -11z"/>
<path d="M4000 1250 c-14 -16 -37 -30 -51 -30 -15 0 -32 -9 -39 -20 -7 -11 1
-14 19 -8 24 10 28 3 19 -25 -10 -27 -4 -25 22 9 19 26 46 42 61 36 17 -6 25
4 23 29 -3 47 -20 50 -54 9z"/>
<path d="M4245 1164 c-5 -14 -4 -31 3 -38 6 -7 12 -2 12 11 0 13 20 23 45 23
25 0 58 9 74 19 21 13 7 18 -47 15 -42 -2 -81 -16 -87 -30z"/>
<path d="M4173 1120 c13 -14 20 -36 14 -50 -14 -38 39 -49 71 -15 24 26 22 28
-13 17 -30 -10 -40 -5 -38 20 2 19 -10 38 -27 43 -23 8 -25 4 -7 -15z"/>
<path d="M2827 2890 c-153 -92 -211 -306 -128 -469 134 -261 497 -263 635 -3
170 323 -193 660 -507 472z m337 -168 c20 -17 36 -46 36 -65 0 -18 11 -38 25
-44 19 -7 18 -15 -5 -31 -26 -19 -16 -30 23 -25 7 1 8 -16 3 -38 -6 -21 -22
-39 -36 -39 -14 0 -37 -15 -53 -34 -23 -29 -23 -31 3 -16 26 15 13 -5 -58 -90
-5 -5 -2 6 5 26 10 28 5 34 -22 26 -92 -28 -185 -29 -185 0 0 15 -9 28 -20 28
-11 0 -20 14 -20 31 0 17 -8 26 -19 20 -31 -19 -15 77 17 101 25 20 24 27 -13
49 -49 31 -11 77 65 79 30 0 33 5 13 18 -21 13 -13 22 30 37 69 24 161 10 211
-33z"/>
<path d="M2970 1981 c-22 -9 -59 -42 -82 -74 -252 -344 -272 -965 -39 -1215
48 -52 106 -130 127 -174 l40 -79 54 95 c30 53 90 132 132 176 203 213 193
818 -20 1154 -79 124 -128 151 -212 117z m66 -136 c-3 -20 5 -33 19 -30 14 3
25 -6 24 -20 0 -32 -48 -95 -72 -95 -10 0 -20 -19 -22 -42 -2 -36 5 -32 46 23
79 107 137 124 114 34 -11 -42 -9 -43 27 -15 34 27 36 27 16 0 -12 -16 -28
-60 -35 -97 -7 -36 -29 -90 -50 -120 -38 -55 -49 -123 -20 -123 10 0 17 23 17
52 0 34 13 55 38 62 24 6 34 22 28 45 -5 21 4 41 23 48 33 12 33 14 7 -157 -4
-25 4 -38 21 -34 19 4 24 -6 15 -27 -8 -23 -4 -30 15 -23 19 7 24 -3 18 -38
-6 -26 -21 -48 -35 -48 -17 0 -22 -15 -15 -43 7 -27 -1 -49 -22 -61 -39 -21
-44 -88 -8 -103 15 -6 12 -10 -9 -11 -18 -1 -40 -12 -48 -25 -8 -13 -3 -19 14
-13 61 21 74 -47 24 -122 -65 -96 -72 -101 -47 -34 16 42 16 64 -2 86 -19 22
-18 27 5 22 15 -3 35 -15 45 -26 9 -12 13 -8 8 10 -4 17 -33 33 -64 37 -36 4
-51 -2 -42 -15 7 -12 4 -22 -8 -22 -11 0 -21 -9 -21 -20 0 -11 14 -20 30 -20
17 0 30 -9 30 -20 0 -11 -12 -20 -26 -20 -15 0 -25 -23 -25 -54 1 -38 -11 -57
-36 -62 -25 -5 -33 0 -23 16 11 17 3 20 -26 11 -22 -7 -46 -4 -52 6 -6 10 16
24 48 30 33 7 60 21 60 31 0 11 -17 16 -39 12 -29 -5 -36 1 -26 26 11 30 8 30
-21 7 -29 -24 -35 -23 -47 7 -7 20 -1 41 15 52 15 9 19 18 8 18 -11 0 -7 9 9
19 17 10 25 24 18 30 -18 18 -78 -11 -75 -36 7 -57 -5 -82 -21 -43 -9 22 -10
49 -2 60 36 49 44 103 9 60 -32 -39 -32 -39 -19 5 11 34 6 45 -21 45 -32 0
-32 2 0 38 19 21 26 43 16 50 -22 13 -21 111 3 147 10 17 0 31 -30 42 -44 17
-44 17 8 27 30 6 58 0 63 -12 5 -12 10 8 10 45 l2 67 -37 -45 -37 -46 9 68 c5
38 24 80 41 94 23 18 24 25 5 25 -20 0 -21 6 -3 28 18 22 18 31 -2 38 -18 8
-17 11 5 12 17 1 47 30 68 65 20 35 27 57 15 50 -12 -8 -27 -5 -34 7 -7 11 -2
20 10 20 12 0 41 18 65 40 52 49 58 50 51 5z"/>
<path d="M2950 963 c-5 -5 -10 -24 -10 -41 1 -28 3 -28 20 -2 16 25 20 23 21
-10 2 -38 32 3 38 52 1 14 -55 15 -69 1z"/>
<path d="M2445 1014 l-106 -84 76 -13 c41 -8 101 -24 133 -36 l57 -22 -12 75
c-7 42 -13 96 -13 121 0 61 -13 57 -135 -41z"/>
<path d="M3460 1041 c0 -32 -9 -83 -21 -112 -26 -71 -30 -70 124 -31 l134 34
-109 84 c-129 100 -128 100 -128 25z"/>
<path d="M1180 1000 c-87 -87 -23 -227 103 -227 123 0 176 130 88 218 -60 59
-137 63 -191 9z"/>
<path d="M4723 1008 c-35 -25 -44 -47 -39 -103 12 -145 182 -188 247 -64 68
133 -82 255 -208 167z"/>
<path d="M2110 782 c-185 -48 -478 -302 -417 -362 30 -30 370 -160 546 -210
l169 -47 91 76 c104 86 221 150 316 170 86 19 82 44 -25 165 -161 182 -446
269 -680 208z m185 -107 c-8 -41 -50 -75 -93 -75 -28 0 -37 -9 -29 -30 14 -38
87 -39 87 -1 0 15 29 49 64 74 35 24 57 34 48 21 -23 -39 -31 -104 -12 -104
10 0 34 33 53 73 19 41 39 62 43 48 5 -14 -3 -33 -18 -42 -22 -14 -23 -22 -3
-42 17 -17 25 -18 25 -3 0 27 36 23 90 -11 37 -23 37 -24 -10 -13 l-50 12 45
-27 c36 -21 40 -32 21 -51 -19 -19 -18 -24 5 -24 25 -1 25 -3 0 -19 -38 -24
-61 -8 -61 40 0 52 -53 50 -81 -3 -25 -47 -6 -82 21 -38 10 16 22 24 28 19 46
-47 -52 -74 -183 -50 -68 12 -85 9 -85 -15 0 -21 19 -28 65 -24 36 3 85 -3
110 -12 31 -12 45 -10 45 6 0 18 6 18 24 0 28 -28 22 -34 -51 -52 -36 -9 -52
-6 -44 7 8 12 -13 19 -53 18 -133 -4 -161 2 -149 32 6 17 2 35 -8 42 -11 6
-13 22 -5 35 24 39 27 94 6 94 -11 0 -20 -8 -20 -18 0 -27 -90 -38 -113 -13
-22 24 -28 91 -9 91 33 -1 65 -38 52 -60 -10 -17 -6 -22 12 -15 15 5 25 21 22
34 -3 14 13 29 35 35 23 6 41 20 41 30 0 11 13 15 29 9 15 -6 39 2 52 18 29
35 61 38 54 4z m-288 -185 c20 -20 35 -23 44 -9 8 14 23 8 40 -15 37 -48 36
-79 -3 -94 -25 -10 -30 -3 -22 28 8 33 1 40 -48 40 -32 0 -58 -9 -58 -20 0
-11 -9 -20 -20 -20 -12 0 -12 18 -1 49 13 34 12 51 -5 58 -14 6 -10 11 10 11
18 1 47 -12 63 -28z"/>
<path d="M2300 550 c0 -16 -13 -30 -30 -30 -16 0 -30 -10 -30 -22 0 -13 -15
-17 -35 -9 -27 10 -30 8 -11 -11 19 -19 31 -19 54 0 23 19 32 18 47 -8 16 -30
20 -30 44 -1 23 27 22 30 -7 19 -28 -11 -32 -4 -21 39 7 29 8 53 1 53 -7 0
-12 -13 -12 -30z"/>
<path d="M3550 774 c-140 -57 -231 -118 -308 -208 -99 -116 -101 -138 -15
-154 103 -19 228 -87 321 -173 l85 -77 190 57 c179 54 453 160 516 200 59 37
-127 235 -299 318 -127 60 -385 80 -490 37z m300 -104 c-11 -3 -45 -12 -75
-19 -30 -6 -55 -21 -55 -32 0 -14 13 -13 40 1 32 17 37 15 27 -10 -15 -40 11
-38 57 4 31 28 36 28 26 3 -7 -17 2 -42 19 -56 17 -14 24 -36 17 -48 -8 -13 2
-11 20 4 30 25 34 23 34 -18 0 -45 1 -45 28 -8 36 49 4 96 -54 77 -32 -10 -37
-6 -27 21 7 19 13 48 13 65 0 25 6 26 30 6 16 -13 25 -33 19 -42 -6 -10 3 -18
20 -18 17 0 31 -8 31 -19 0 -10 20 -15 45 -11 41 8 42 6 10 -18 -19 -15 -35
-50 -35 -78 0 -52 -39 -99 -42 -50 -1 20 -3 20 -11 1 -6 -14 -21 -25 -34 -25
-12 0 -48 -13 -78 -29 -30 -16 -55 -20 -55 -10 0 11 -9 19 -20 19 -11 0 -20
-13 -20 -30 0 -16 -9 -30 -21 -30 -14 0 -14 12 0 39 29 54 26 67 -12 53 -17
-7 -44 -3 -58 9 -15 12 -30 13 -37 2 -6 -10 6 -23 28 -29 57 -15 50 -49 -10
-49 -44 0 -49 6 -39 61 9 53 7 57 -20 35 -17 -14 -31 -38 -31 -54 0 -18 -21
-9 -59 26 -33 29 -54 62 -47 73 8 13 0 16 -20 8 -18 -7 -37 -5 -43 5 -6 9 2
22 18 28 30 11 56 -14 77 -72 7 -19 22 -35 33 -35 11 0 15 14 8 30 -6 18 0 30
16 30 19 1 20 5 4 15 -18 11 -16 25 5 54 20 28 28 30 28 10 1 -24 3 -25 18 -1
10 15 30 21 45 13 15 -8 10 0 -12 18 -38 30 -38 31 6 31 24 0 49 14 56 30 7
20 37 29 84 28 40 0 64 -4 53 -8z m-324 -90 c11 -43 -52 -59 -76 -20 -7 11 2
20 20 20 18 0 27 9 20 20 -7 11 -4 20 6 20 11 0 24 -18 30 -40z"/>
<path d="M3720 456 c0 -9 11 -16 25 -17 14 -1 64 -6 112 -12 66 -8 86 -5 79
14 -9 28 -216 42 -216 15z"/>
<path d="M1485 645 c-152 -8 -154 -18 -21 -98 l105 -63 34 56 c18 30 43 62 55
69 34 21 26 51 -13 47 -19 -2 -91 -7 -160 -11z"/>
<path d="M4364 644 c4 -8 28 -48 53 -89 l47 -75 83 51 c46 28 96 58 113 68 16
10 25 22 20 27 -17 15 -323 32 -316 18z"/>
<path d="M2822 286 c-196 -67 -300 -166 -175 -166 37 0 124 -6 193 -13 l126
-13 -11 95 c-14 123 -28 134 -133 97z"/>
<path d="M3092 257 c-29 -148 -22 -161 83 -150 52 6 143 11 202 12 136 1 129
30 -29 112 -182 96 -240 102 -256 26z"/>
</g>
</svg>
